<svg xmlns="http://www.w3.org/2000/svg" width="392" height="574" viewBox="0 0 392 574" role="img">
    <defs>
      <radialGradient id="cardGlow" cx="0.45" cy="0.25" r="0.7">
        <stop stop-color="#7b4d12" stop-opacity="1.27"/>
        <stop offset="0.46" stop-color="#241805" stop-opacity="0.55"/>
        <stop offset="1" stop-color="#050916" stop-opacity="0.96"/>
      </radialGradient>
      <linearGradient id="cardLine" x1="0" x2="1">
        <stop stop-color="#f0c35b"/>
        <stop offset="0.5" stop-color="#f0c35b" stop-opacity="0.42"/>
        <stop offset="1" stop-color="#f0c35b"/>
      </linearGradient>
    </defs>
    <rect x="3" y="3" width="386" height="568" rx="27" fill="url(#cardGlow)" stroke="url(#cardLine)" stroke-width="5"/>
    <rect x="7" y="7" width="378" height="560" rx="23" fill="none" stroke="#f0c35b" stroke-opacity="0.24" stroke-width="1"/>
    <path d="M3 110 L108 3 H148 L3 148 Z" fill="#f0c35b" opacity="0.22"/>
    <path d="M16 99 L101 14 H139" fill="none" stroke="#f0c35b" stroke-opacity="0.36" stroke-width="1.5"/>
    <path d="M111 3 L136 3 M272 3 L300 3" stroke="#f0c35b" stroke-opacity="0.8" stroke-width="2"/>
    <path d="M13 486 L13 549 Q13 561 25 561 H62" stroke="#f0c35b" stroke-opacity="0.24" stroke-width="1.5" fill="none"/>
    
    <path d="M-7 116 H10 M-7 154 H6 M386 118 H402 M390 160 H404 M-4 430 H12 M381 448 H401" stroke="#f0c35b" stroke-width="3" stroke-linecap="round" opacity="0.85"/>
    <g fill="#f0c35b" opacity="0.82">
      <rect x="10" y="82" width="4" height="4"/><rect x="22" y="132" width="3" height="8"/><rect x="374" y="88" width="5" height="5"/><rect x="364" y="132" width="3" height="8"/>
      <rect x="18" y="454" width="4" height="4"/><rect x="372" y="488" width="4" height="4"/>
    </g>
  
    
  </svg>
