<svg xmlns="http://www.w3.org/2000/svg" width="460" height="620" viewBox="0 0 460 620" role="img">
    <g fill="#9b62ff" stroke="#9b62ff" stroke-linecap="round" opacity="0.9">
      <rect x="8" y="112" width="4" height="10"/><rect x="19" y="182" width="3" height="3"/><rect x="36" y="246" width="4" height="12"/><rect x="18" y="402" width="5" height="5"/><rect x="48" y="532" width="4" height="10"/>
      <rect x="438" y="103" width="5" height="5"/><rect x="421" y="171" width="4" height="11"/><rect x="445" y="254" width="4" height="4"/><rect x="414" y="384" width="5" height="12"/><rect x="435" y="517" width="4" height="4"/>
      <path d="M55 94 H72 M42 124 H51 M389 91 H410 M409 132 H420 M37 570 H51 M405 571 H421" stroke-width="3"/>
      <circle cx="27" cy="321" r="3"/><circle cx="432" cy="313" r="3"/><circle cx="58" cy="467" r="2"/><circle cx="397" cy="462" r="2"/>
    </g>
  </svg>
