<svg xmlns="http://www.w3.org/2000/svg" width="512" height="512" viewBox="0 0 512 512" role="img"><g transform="translate(0,0)"><ellipse cx="64" cy="104" rx="42" ry="11" fill="rgba(0,0,0,0.24)"/><circle cx="64" cy="67" r="43" fill="#b97845" stroke="#2b1711" stroke-width="4"/><circle cx="64" cy="67" r="20" fill="#221610" stroke="#2b1711" stroke-width="3"/><path d="M30 62 C45 43 84 43 99 62" fill="none" stroke="#f0a8d4" stroke-width="13" stroke-linecap="round"/><circle cx="49" cy="49" r="3" fill="#79d7ff"/><circle cx="82" cy="49" r="3" fill="#79d7ff"/><circle cx="52" cy="58" r="4" fill="#2b1711"/><circle cx="76" cy="58" r="4" fill="#2b1711"/><path d="M54 72 C60 78 70 78 76 72" fill="none" stroke="#2b1711" stroke-width="3" stroke-linecap="round"/></g><g transform="translate(128,0)"><ellipse cx="64" cy="104" rx="42" ry="11" fill="rgba(0,0,0,0.24)"/><circle cx="64" cy="70" r="43" fill="#b97845" stroke="#2b1711" stroke-width="4"/><circle cx="64" cy="70" r="20" fill="#221610" stroke="#2b1711" stroke-width="3"/><path d="M30 65 C45 46 84 46 99 65" fill="none" stroke="#f0a8d4" stroke-width="13" stroke-linecap="round"/><circle cx="49" cy="52" r="3" fill="#79d7ff"/><circle cx="82" cy="52" r="3" fill="#79d7ff"/><circle cx="52" cy="61" r="4" fill="#2b1711"/><circle cx="76" cy="61" r="4" fill="#2b1711"/><path d="M54 75 C60 81 70 81 76 75" fill="none" stroke="#2b1711" stroke-width="3" stroke-linecap="round"/></g><g transform="translate(256,0)"><ellipse cx="64" cy="104" rx="42" ry="11" fill="rgba(0,0,0,0.24)"/><circle cx="64" cy="67" r="43" fill="#b97845" stroke="#2b1711" stroke-width="4"/><circle cx="64" cy="67" r="20" fill="#221610" stroke="#2b1711" stroke-width="3"/><path d="M30 62 C45 43 84 43 99 62" fill="none" stroke="#f0a8d4" stroke-width="13" stroke-linecap="round"/><circle cx="49" cy="49" r="3" fill="#79d7ff"/><circle cx="82" cy="49" r="3" fill="#79d7ff"/><circle cx="52" cy="58" r="4" fill="#2b1711"/><circle cx="76" cy="58" r="4" fill="#2b1711"/><path d="M54 72 C60 78 70 78 76 72" fill="none" stroke="#2b1711" stroke-width="3" stroke-linecap="round"/></g><g transform="translate(384,0)"><ellipse cx="64" cy="104" rx="42" ry="11" fill="rgba(0,0,0,0.24)"/><circle cx="64" cy="64" r="43" fill="#b97845" stroke="#2b1711" stroke-width="4"/><circle cx="64" cy="64" r="20" fill="#221610" stroke="#2b1711" stroke-width="3"/><path d="M30 59 C45 40 84 40 99 59" fill="none" stroke="#f0a8d4" stroke-width="13" stroke-linecap="round"/><circle cx="49" cy="46" r="3" fill="#79d7ff"/><circle cx="82" cy="46" r="3" fill="#79d7ff"/><circle cx="52" cy="55" r="4" fill="#2b1711"/><circle cx="76" cy="55" r="4" fill="#2b1711"/><path d="M54 69 C60 75 70 75 76 69" fill="none" stroke="#2b1711" stroke-width="3" stroke-linecap="round"/></g><g transform="translate(0,128)"><ellipse cx="64" cy="104" rx="42" ry="11" fill="rgba(0,0,0,0.24)"/><circle cx="64" cy="67" r="43" fill="#b97845" stroke="#2b1711" stroke-width="4"/><circle cx="64" cy="67" r="20" fill="#221610" stroke="#2b1711" stroke-width="3"/><path d="M30 62 C45 43 84 43 99 62" fill="none" stroke="#f0a8d4" stroke-width="13" stroke-linecap="round"/><circle cx="49" cy="49" r="3" fill="#79d7ff"/><circle cx="82" cy="49" r="3" fill="#79d7ff"/><circle cx="52" cy="58" r="4" fill="#2b1711"/><circle cx="76" cy="58" r="4" fill="#2b1711"/><path d="M54 72 C60 78 70 78 76 72" fill="none" stroke="#2b1711" stroke-width="3" stroke-linecap="round"/></g><g transform="translate(128,128)"><ellipse cx="64" cy="104" rx="42" ry="11" fill="rgba(0,0,0,0.24)"/><circle cx="64" cy="70" r="43" fill="#b97845" stroke="#2b1711" stroke-width="4"/><circle cx="64" cy="70" r="20" fill="#221610" stroke="#2b1711" stroke-width="3"/><path d="M30 65 C45 46 84 46 99 65" fill="none" stroke="#f0a8d4" stroke-width="13" stroke-linecap="round"/><circle cx="49" cy="52" r="3" fill="#79d7ff"/><circle cx="82" cy="52" r="3" fill="#79d7ff"/><circle cx="52" cy="61" r="4" fill="#2b1711"/><circle cx="76" cy="61" r="4" fill="#2b1711"/><path d="M54 75 C60 81 70 81 76 75" fill="none" stroke="#2b1711" stroke-width="3" stroke-linecap="round"/></g><g transform="translate(256,128)"><ellipse cx="64" cy="104" rx="42" ry="11" fill="rgba(0,0,0,0.24)"/><circle cx="64" cy="67" r="43" fill="#b97845" stroke="#2b1711" stroke-width="4"/><circle cx="64" cy="67" r="20" fill="#221610" stroke="#2b1711" stroke-width="3"/><path d="M30 62 C45 43 84 43 99 62" fill="none" stroke="#f0a8d4" stroke-width="13" stroke-linecap="round"/><circle cx="49" cy="49" r="3" fill="#79d7ff"/><circle cx="82" cy="49" r="3" fill="#79d7ff"/><circle cx="52" cy="58" r="4" fill="#2b1711"/><circle cx="76" cy="58" r="4" fill="#2b1711"/><path d="M54 72 C60 78 70 78 76 72" fill="none" stroke="#2b1711" stroke-width="3" stroke-linecap="round"/></g><g transform="translate(384,128)"><ellipse cx="64" cy="104" rx="42" ry="11" fill="rgba(0,0,0,0.24)"/><circle cx="64" cy="64" r="43" fill="#b97845" stroke="#2b1711" stroke-width="4"/><circle cx="64" cy="64" r="20" fill="#221610" stroke="#2b1711" stroke-width="3"/><path d="M30 59 C45 40 84 40 99 59" fill="none" stroke="#f0a8d4" stroke-width="13" stroke-linecap="round"/><circle cx="49" cy="46" r="3" fill="#79d7ff"/><circle cx="82" cy="46" r="3" fill="#79d7ff"/><circle cx="52" cy="55" r="4" fill="#2b1711"/><circle cx="76" cy="55" r="4" fill="#2b1711"/><path d="M54 69 C60 75 70 75 76 69" fill="none" stroke="#2b1711" stroke-width="3" stroke-linecap="round"/></g><g transform="translate(0,256)"><ellipse cx="64" cy="104" rx="42" ry="11" fill="rgba(0,0,0,0.24)"/><circle cx="64" cy="67" r="43" fill="#b97845" stroke="#2b1711" stroke-width="4"/><circle cx="64" cy="67" r="20" fill="#221610" stroke="#2b1711" stroke-width="3"/><path d="M30 62 C45 43 84 43 99 62" fill="none" stroke="#f0a8d4" stroke-width="13" stroke-linecap="round"/><circle cx="49" cy="49" r="3" fill="#79d7ff"/><circle cx="82" cy="49" r="3" fill="#79d7ff"/><circle cx="52" cy="58" r="4" fill="#2b1711"/><circle cx="76" cy="58" r="4" fill="#2b1711"/><path d="M54 72 C60 78 70 78 76 72" fill="none" stroke="#2b1711" stroke-width="3" stroke-linecap="round"/></g><g transform="translate(128,256)"><ellipse cx="64" cy="104" rx="42" ry="11" fill="rgba(0,0,0,0.24)"/><circle cx="64" cy="70" r="43" fill="#b97845" stroke="#2b1711" stroke-width="4"/><circle cx="64" cy="70" r="20" fill="#221610" stroke="#2b1711" stroke-width="3"/><path d="M30 65 C45 46 84 46 99 65" fill="none" stroke="#f0a8d4" stroke-width="13" stroke-linecap="round"/><circle cx="49" cy="52" r="3" fill="#79d7ff"/><circle cx="82" cy="52" r="3" fill="#79d7ff"/><circle cx="52" cy="61" r="4" fill="#2b1711"/><circle cx="76" cy="61" r="4" fill="#2b1711"/><path d="M54 75 C60 81 70 81 76 75" fill="none" stroke="#2b1711" stroke-width="3" stroke-linecap="round"/></g><g transform="translate(256,256)"><ellipse cx="64" cy="104" rx="42" ry="11" fill="rgba(0,0,0,0.24)"/><circle cx="64" cy="67" r="43" fill="#b97845" stroke="#2b1711" stroke-width="4"/><circle cx="64" cy="67" r="20" fill="#221610" stroke="#2b1711" stroke-width="3"/><path d="M30 62 C45 43 84 43 99 62" fill="none" stroke="#f0a8d4" stroke-width="13" stroke-linecap="round"/><circle cx="49" cy="49" r="3" fill="#79d7ff"/><circle cx="82" cy="49" r="3" fill="#79d7ff"/><circle cx="52" cy="58" r="4" fill="#2b1711"/><circle cx="76" cy="58" r="4" fill="#2b1711"/><path d="M54 72 C60 78 70 78 76 72" fill="none" stroke="#2b1711" stroke-width="3" stroke-linecap="round"/></g><g transform="translate(384,256)"><ellipse cx="64" cy="104" rx="42" ry="11" fill="rgba(0,0,0,0.24)"/><circle cx="64" cy="64" r="43" fill="#b97845" stroke="#2b1711" stroke-width="4"/><circle cx="64" cy="64" r="20" fill="#221610" stroke="#2b1711" stroke-width="3"/><path d="M30 59 C45 40 84 40 99 59" fill="none" stroke="#f0a8d4" stroke-width="13" stroke-linecap="round"/><circle cx="49" cy="46" r="3" fill="#79d7ff"/><circle cx="82" cy="46" r="3" fill="#79d7ff"/><circle cx="52" cy="55" r="4" fill="#2b1711"/><circle cx="76" cy="55" r="4" fill="#2b1711"/><path d="M54 69 C60 75 70 75 76 69" fill="none" stroke="#2b1711" stroke-width="3" stroke-linecap="round"/></g><g transform="translate(0,384)"><ellipse cx="64" cy="104" rx="42" ry="11" fill="rgba(0,0,0,0.24)"/><circle cx="64" cy="67" r="43" fill="#b97845" stroke="#2b1711" stroke-width="4"/><circle cx="64" cy="67" r="20" fill="#221610" stroke="#2b1711" stroke-width="3"/><path d="M30 62 C45 43 84 43 99 62" fill="none" stroke="#f0a8d4" stroke-width="13" stroke-linecap="round"/><circle cx="49" cy="49" r="3" fill="#79d7ff"/><circle cx="82" cy="49" r="3" fill="#79d7ff"/><circle cx="52" cy="58" r="4" fill="#2b1711"/><circle cx="76" cy="58" r="4" fill="#2b1711"/><path d="M54 72 C60 78 70 78 76 72" fill="none" stroke="#2b1711" stroke-width="3" stroke-linecap="round"/></g><g transform="translate(128,384)"><ellipse cx="64" cy="104" rx="42" ry="11" fill="rgba(0,0,0,0.24)"/><circle cx="64" cy="70" r="43" fill="#b97845" stroke="#2b1711" stroke-width="4"/><circle cx="64" cy="70" r="20" fill="#221610" stroke="#2b1711" stroke-width="3"/><path d="M30 65 C45 46 84 46 99 65" fill="none" stroke="#f0a8d4" stroke-width="13" stroke-linecap="round"/><circle cx="49" cy="52" r="3" fill="#79d7ff"/><circle cx="82" cy="52" r="3" fill="#79d7ff"/><circle cx="52" cy="61" r="4" fill="#2b1711"/><circle cx="76" cy="61" r="4" fill="#2b1711"/><path d="M54 75 C60 81 70 81 76 75" fill="none" stroke="#2b1711" stroke-width="3" stroke-linecap="round"/></g><g transform="translate(256,384)"><ellipse cx="64" cy="104" rx="42" ry="11" fill="rgba(0,0,0,0.24)"/><circle cx="64" cy="67" r="43" fill="#b97845" stroke="#2b1711" stroke-width="4"/><circle cx="64" cy="67" r="20" fill="#221610" stroke="#2b1711" stroke-width="3"/><path d="M30 62 C45 43 84 43 99 62" fill="none" stroke="#f0a8d4" stroke-width="13" stroke-linecap="round"/><circle cx="49" cy="49" r="3" fill="#79d7ff"/><circle cx="82" cy="49" r="3" fill="#79d7ff"/><circle cx="52" cy="58" r="4" fill="#2b1711"/><circle cx="76" cy="58" r="4" fill="#2b1711"/><path d="M54 72 C60 78 70 78 76 72" fill="none" stroke="#2b1711" stroke-width="3" stroke-linecap="round"/></g><g transform="translate(384,384)"><ellipse cx="64" cy="104" rx="42" ry="11" fill="rgba(0,0,0,0.24)"/><circle cx="64" cy="64" r="43" fill="#b97845" stroke="#2b1711" stroke-width="4"/><circle cx="64" cy="64" r="20" fill="#221610" stroke="#2b1711" stroke-width="3"/><path d="M30 59 C45 40 84 40 99 59" fill="none" stroke="#f0a8d4" stroke-width="13" stroke-linecap="round"/><circle cx="49" cy="46" r="3" fill="#79d7ff"/><circle cx="82" cy="46" r="3" fill="#79d7ff"/><circle cx="52" cy="55" r="4" fill="#2b1711"/><circle cx="76" cy="55" r="4" fill="#2b1711"/><path d="M54 69 C60 75 70 75 76 69" fill="none" stroke="#2b1711" stroke-width="3" stroke-linecap="round"/></g></svg>
