<svg xmlns="http://www.w3.org/2000/svg" width="512" height="512" viewBox="0 0 512 512" role="img"><g transform="translate(0,0)"><ellipse cx="64" cy="104" rx="42" ry="11" fill="rgba(0,0,0,0.24)"/><path d="M32 54 L96 54 L87 106 H41 Z" fill="#ce4331" stroke="#2b1711" stroke-width="4"/><path d="M42 55 L38 20 M57 54 L55 13 M73 55 L77 16 M88 56 L96 24" stroke="#f4c851" stroke-width="10" stroke-linecap="round"/><circle cx="52" cy="58" r="4" fill="#2b1711"/><circle cx="76" cy="58" r="4" fill="#2b1711"/><path d="M54 72 C60 78 70 78 76 72" fill="none" stroke="#2b1711" stroke-width="3" stroke-linecap="round"/></g><g transform="translate(128,0)"><ellipse cx="64" cy="104" rx="42" ry="11" fill="rgba(0,0,0,0.24)"/><path d="M32 57 L96 57 L87 109 H41 Z" fill="#ce4331" stroke="#2b1711" stroke-width="4"/><path d="M42 58 L38 23 M57 57 L55 16 M73 58 L77 19 M88 59 L96 27" stroke="#f4c851" stroke-width="10" stroke-linecap="round"/><circle cx="52" cy="61" r="4" fill="#2b1711"/><circle cx="76" cy="61" r="4" fill="#2b1711"/><path d="M54 75 C60 81 70 81 76 75" fill="none" stroke="#2b1711" stroke-width="3" stroke-linecap="round"/></g><g transform="translate(256,0)"><ellipse cx="64" cy="104" rx="42" ry="11" fill="rgba(0,0,0,0.24)"/><path d="M32 54 L96 54 L87 106 H41 Z" fill="#ce4331" stroke="#2b1711" stroke-width="4"/><path d="M42 55 L38 20 M57 54 L55 13 M73 55 L77 16 M88 56 L96 24" stroke="#f4c851" stroke-width="10" stroke-linecap="round"/><circle cx="52" cy="58" r="4" fill="#2b1711"/><circle cx="76" cy="58" r="4" fill="#2b1711"/><path d="M54 72 C60 78 70 78 76 72" fill="none" stroke="#2b1711" stroke-width="3" stroke-linecap="round"/></g><g transform="translate(384,0)"><ellipse cx="64" cy="104" rx="42" ry="11" fill="rgba(0,0,0,0.24)"/><path d="M32 51 L96 51 L87 103 H41 Z" fill="#ce4331" stroke="#2b1711" stroke-width="4"/><path d="M42 52 L38 17 M57 51 L55 10 M73 52 L77 13 M88 53 L96 21" stroke="#f4c851" stroke-width="10" stroke-linecap="round"/><circle cx="52" cy="55" r="4" fill="#2b1711"/><circle cx="76" cy="55" r="4" fill="#2b1711"/><path d="M54 69 C60 75 70 75 76 69" fill="none" stroke="#2b1711" stroke-width="3" stroke-linecap="round"/></g><g transform="translate(0,128)"><ellipse cx="64" cy="104" rx="42" ry="11" fill="rgba(0,0,0,0.24)"/><path d="M32 54 L96 54 L87 106 H41 Z" fill="#ce4331" stroke="#2b1711" stroke-width="4"/><path d="M42 55 L38 20 M57 54 L55 13 M73 55 L77 16 M88 56 L96 24" stroke="#f4c851" stroke-width="10" stroke-linecap="round"/><circle cx="52" cy="58" r="4" fill="#2b1711"/><circle cx="76" cy="58" r="4" fill="#2b1711"/><path d="M54 72 C60 78 70 78 76 72" fill="none" stroke="#2b1711" stroke-width="3" stroke-linecap="round"/></g><g transform="translate(128,128)"><ellipse cx="64" cy="104" rx="42" ry="11" fill="rgba(0,0,0,0.24)"/><path d="M32 57 L96 57 L87 109 H41 Z" fill="#ce4331" stroke="#2b1711" stroke-width="4"/><path d="M42 58 L38 23 M57 57 L55 16 M73 58 L77 19 M88 59 L96 27" stroke="#f4c851" stroke-width="10" stroke-linecap="round"/><circle cx="52" cy="61" r="4" fill="#2b1711"/><circle cx="76" cy="61" r="4" fill="#2b1711"/><path d="M54 75 C60 81 70 81 76 75" fill="none" stroke="#2b1711" stroke-width="3" stroke-linecap="round"/></g><g transform="translate(256,128)"><ellipse cx="64" cy="104" rx="42" ry="11" fill="rgba(0,0,0,0.24)"/><path d="M32 54 L96 54 L87 106 H41 Z" fill="#ce4331" stroke="#2b1711" stroke-width="4"/><path d="M42 55 L38 20 M57 54 L55 13 M73 55 L77 16 M88 56 L96 24" stroke="#f4c851" stroke-width="10" stroke-linecap="round"/><circle cx="52" cy="58" r="4" fill="#2b1711"/><circle cx="76" cy="58" r="4" fill="#2b1711"/><path d="M54 72 C60 78 70 78 76 72" fill="none" stroke="#2b1711" stroke-width="3" stroke-linecap="round"/></g><g transform="translate(384,128)"><ellipse cx="64" cy="104" rx="42" ry="11" fill="rgba(0,0,0,0.24)"/><path d="M32 51 L96 51 L87 103 H41 Z" fill="#ce4331" stroke="#2b1711" stroke-width="4"/><path d="M42 52 L38 17 M57 51 L55 10 M73 52 L77 13 M88 53 L96 21" stroke="#f4c851" stroke-width="10" stroke-linecap="round"/><circle cx="52" cy="55" r="4" fill="#2b1711"/><circle cx="76" cy="55" r="4" fill="#2b1711"/><path d="M54 69 C60 75 70 75 76 69" fill="none" stroke="#2b1711" stroke-width="3" stroke-linecap="round"/></g><g transform="translate(0,256)"><ellipse cx="64" cy="104" rx="42" ry="11" fill="rgba(0,0,0,0.24)"/><path d="M32 54 L96 54 L87 106 H41 Z" fill="#ce4331" stroke="#2b1711" stroke-width="4"/><path d="M42 55 L38 20 M57 54 L55 13 M73 55 L77 16 M88 56 L96 24" stroke="#f4c851" stroke-width="10" stroke-linecap="round"/><circle cx="52" cy="58" r="4" fill="#2b1711"/><circle cx="76" cy="58" r="4" fill="#2b1711"/><path d="M54 72 C60 78 70 78 76 72" fill="none" stroke="#2b1711" stroke-width="3" stroke-linecap="round"/></g><g transform="translate(128,256)"><ellipse cx="64" cy="104" rx="42" ry="11" fill="rgba(0,0,0,0.24)"/><path d="M32 57 L96 57 L87 109 H41 Z" fill="#ce4331" stroke="#2b1711" stroke-width="4"/><path d="M42 58 L38 23 M57 57 L55 16 M73 58 L77 19 M88 59 L96 27" stroke="#f4c851" stroke-width="10" stroke-linecap="round"/><circle cx="52" cy="61" r="4" fill="#2b1711"/><circle cx="76" cy="61" r="4" fill="#2b1711"/><path d="M54 75 C60 81 70 81 76 75" fill="none" stroke="#2b1711" stroke-width="3" stroke-linecap="round"/></g><g transform="translate(256,256)"><ellipse cx="64" cy="104" rx="42" ry="11" fill="rgba(0,0,0,0.24)"/><path d="M32 54 L96 54 L87 106 H41 Z" fill="#ce4331" stroke="#2b1711" stroke-width="4"/><path d="M42 55 L38 20 M57 54 L55 13 M73 55 L77 16 M88 56 L96 24" stroke="#f4c851" stroke-width="10" stroke-linecap="round"/><circle cx="52" cy="58" r="4" fill="#2b1711"/><circle cx="76" cy="58" r="4" fill="#2b1711"/><path d="M54 72 C60 78 70 78 76 72" fill="none" stroke="#2b1711" stroke-width="3" stroke-linecap="round"/></g><g transform="translate(384,256)"><ellipse cx="64" cy="104" rx="42" ry="11" fill="rgba(0,0,0,0.24)"/><path d="M32 51 L96 51 L87 103 H41 Z" fill="#ce4331" stroke="#2b1711" stroke-width="4"/><path d="M42 52 L38 17 M57 51 L55 10 M73 52 L77 13 M88 53 L96 21" stroke="#f4c851" stroke-width="10" stroke-linecap="round"/><circle cx="52" cy="55" r="4" fill="#2b1711"/><circle cx="76" cy="55" r="4" fill="#2b1711"/><path d="M54 69 C60 75 70 75 76 69" fill="none" stroke="#2b1711" stroke-width="3" stroke-linecap="round"/></g><g transform="translate(0,384)"><ellipse cx="64" cy="104" rx="42" ry="11" fill="rgba(0,0,0,0.24)"/><path d="M32 54 L96 54 L87 106 H41 Z" fill="#ce4331" stroke="#2b1711" stroke-width="4"/><path d="M42 55 L38 20 M57 54 L55 13 M73 55 L77 16 M88 56 L96 24" stroke="#f4c851" stroke-width="10" stroke-linecap="round"/><circle cx="52" cy="58" r="4" fill="#2b1711"/><circle cx="76" cy="58" r="4" fill="#2b1711"/><path d="M54 72 C60 78 70 78 76 72" fill="none" stroke="#2b1711" stroke-width="3" stroke-linecap="round"/></g><g transform="translate(128,384)"><ellipse cx="64" cy="104" rx="42" ry="11" fill="rgba(0,0,0,0.24)"/><path d="M32 57 L96 57 L87 109 H41 Z" fill="#ce4331" stroke="#2b1711" stroke-width="4"/><path d="M42 58 L38 23 M57 57 L55 16 M73 58 L77 19 M88 59 L96 27" stroke="#f4c851" stroke-width="10" stroke-linecap="round"/><circle cx="52" cy="61" r="4" fill="#2b1711"/><circle cx="76" cy="61" r="4" fill="#2b1711"/><path d="M54 75 C60 81 70 81 76 75" fill="none" stroke="#2b1711" stroke-width="3" stroke-linecap="round"/></g><g transform="translate(256,384)"><ellipse cx="64" cy="104" rx="42" ry="11" fill="rgba(0,0,0,0.24)"/><path d="M32 54 L96 54 L87 106 H41 Z" fill="#ce4331" stroke="#2b1711" stroke-width="4"/><path d="M42 55 L38 20 M57 54 L55 13 M73 55 L77 16 M88 56 L96 24" stroke="#f4c851" stroke-width="10" stroke-linecap="round"/><circle cx="52" cy="58" r="4" fill="#2b1711"/><circle cx="76" cy="58" r="4" fill="#2b1711"/><path d="M54 72 C60 78 70 78 76 72" fill="none" stroke="#2b1711" stroke-width="3" stroke-linecap="round"/></g><g transform="translate(384,384)"><ellipse cx="64" cy="104" rx="42" ry="11" fill="rgba(0,0,0,0.24)"/><path d="M32 51 L96 51 L87 103 H41 Z" fill="#ce4331" stroke="#2b1711" stroke-width="4"/><path d="M42 52 L38 17 M57 51 L55 10 M73 52 L77 13 M88 53 L96 21" stroke="#f4c851" stroke-width="10" stroke-linecap="round"/><circle cx="52" cy="55" r="4" fill="#2b1711"/><circle cx="76" cy="55" r="4" fill="#2b1711"/><path d="M54 69 C60 75 70 75 76 69" fill="none" stroke="#2b1711" stroke-width="3" stroke-linecap="round"/></g></svg>
