<svg xmlns="http://www.w3.org/2000/svg" width="512" height="512" viewBox="0 0 512 512" role="img"><g transform="translate(0,0)"><ellipse cx="64" cy="104" rx="42" ry="11" fill="rgba(0,0,0,0.24)"/><path d="M64 24 L111 104 L17 104 Z" fill="#f4c24e" stroke="#2b1711" stroke-width="4"/><path d="M49 55 L78 55 L63 81 Z" fill="#7b3f24"/><circle cx="52" cy="58" r="4" fill="#2b1711"/><circle cx="76" cy="58" r="4" fill="#2b1711"/><path d="M54 72 C60 78 70 78 76 72" fill="none" stroke="#2b1711" stroke-width="3" stroke-linecap="round"/></g><g transform="translate(128,0)"><ellipse cx="64" cy="104" rx="42" ry="11" fill="rgba(0,0,0,0.24)"/><path d="M64 27 L111 107 L17 107 Z" fill="#f4c24e" stroke="#2b1711" stroke-width="4"/><path d="M49 58 L78 58 L63 84 Z" fill="#7b3f24"/><circle cx="52" cy="61" r="4" fill="#2b1711"/><circle cx="76" cy="61" r="4" fill="#2b1711"/><path d="M54 75 C60 81 70 81 76 75" fill="none" stroke="#2b1711" stroke-width="3" stroke-linecap="round"/></g><g transform="translate(256,0)"><ellipse cx="64" cy="104" rx="42" ry="11" fill="rgba(0,0,0,0.24)"/><path d="M64 24 L111 104 L17 104 Z" fill="#f4c24e" stroke="#2b1711" stroke-width="4"/><path d="M49 55 L78 55 L63 81 Z" fill="#7b3f24"/><circle cx="52" cy="58" r="4" fill="#2b1711"/><circle cx="76" cy="58" r="4" fill="#2b1711"/><path d="M54 72 C60 78 70 78 76 72" fill="none" stroke="#2b1711" stroke-width="3" stroke-linecap="round"/></g><g transform="translate(384,0)"><ellipse cx="64" cy="104" rx="42" ry="11" fill="rgba(0,0,0,0.24)"/><path d="M64 21 L111 101 L17 101 Z" fill="#f4c24e" stroke="#2b1711" stroke-width="4"/><path d="M49 52 L78 52 L63 78 Z" fill="#7b3f24"/><circle cx="52" cy="55" r="4" fill="#2b1711"/><circle cx="76" cy="55" r="4" fill="#2b1711"/><path d="M54 69 C60 75 70 75 76 69" fill="none" stroke="#2b1711" stroke-width="3" stroke-linecap="round"/></g><g transform="translate(0,128)"><ellipse cx="64" cy="104" rx="42" ry="11" fill="rgba(0,0,0,0.24)"/><path d="M64 24 L111 104 L17 104 Z" fill="#f4c24e" stroke="#2b1711" stroke-width="4"/><path d="M49 55 L78 55 L63 81 Z" fill="#7b3f24"/><circle cx="52" cy="58" r="4" fill="#2b1711"/><circle cx="76" cy="58" r="4" fill="#2b1711"/><path d="M54 72 C60 78 70 78 76 72" fill="none" stroke="#2b1711" stroke-width="3" stroke-linecap="round"/></g><g transform="translate(128,128)"><ellipse cx="64" cy="104" rx="42" ry="11" fill="rgba(0,0,0,0.24)"/><path d="M64 27 L111 107 L17 107 Z" fill="#f4c24e" stroke="#2b1711" stroke-width="4"/><path d="M49 58 L78 58 L63 84 Z" fill="#7b3f24"/><circle cx="52" cy="61" r="4" fill="#2b1711"/><circle cx="76" cy="61" r="4" fill="#2b1711"/><path d="M54 75 C60 81 70 81 76 75" fill="none" stroke="#2b1711" stroke-width="3" stroke-linecap="round"/></g><g transform="translate(256,128)"><ellipse cx="64" cy="104" rx="42" ry="11" fill="rgba(0,0,0,0.24)"/><path d="M64 24 L111 104 L17 104 Z" fill="#f4c24e" stroke="#2b1711" stroke-width="4"/><path d="M49 55 L78 55 L63 81 Z" fill="#7b3f24"/><circle cx="52" cy="58" r="4" fill="#2b1711"/><circle cx="76" cy="58" r="4" fill="#2b1711"/><path d="M54 72 C60 78 70 78 76 72" fill="none" stroke="#2b1711" stroke-width="3" stroke-linecap="round"/></g><g transform="translate(384,128)"><ellipse cx="64" cy="104" rx="42" ry="11" fill="rgba(0,0,0,0.24)"/><path d="M64 21 L111 101 L17 101 Z" fill="#f4c24e" stroke="#2b1711" stroke-width="4"/><path d="M49 52 L78 52 L63 78 Z" fill="#7b3f24"/><circle cx="52" cy="55" r="4" fill="#2b1711"/><circle cx="76" cy="55" r="4" fill="#2b1711"/><path d="M54 69 C60 75 70 75 76 69" fill="none" stroke="#2b1711" stroke-width="3" stroke-linecap="round"/></g><g transform="translate(0,256)"><ellipse cx="64" cy="104" rx="42" ry="11" fill="rgba(0,0,0,0.24)"/><path d="M64 24 L111 104 L17 104 Z" fill="#f4c24e" stroke="#2b1711" stroke-width="4"/><path d="M49 55 L78 55 L63 81 Z" fill="#7b3f24"/><circle cx="52" cy="58" r="4" fill="#2b1711"/><circle cx="76" cy="58" r="4" fill="#2b1711"/><path d="M54 72 C60 78 70 78 76 72" fill="none" stroke="#2b1711" stroke-width="3" stroke-linecap="round"/></g><g transform="translate(128,256)"><ellipse cx="64" cy="104" rx="42" ry="11" fill="rgba(0,0,0,0.24)"/><path d="M64 27 L111 107 L17 107 Z" fill="#f4c24e" stroke="#2b1711" stroke-width="4"/><path d="M49 58 L78 58 L63 84 Z" fill="#7b3f24"/><circle cx="52" cy="61" r="4" fill="#2b1711"/><circle cx="76" cy="61" r="4" fill="#2b1711"/><path d="M54 75 C60 81 70 81 76 75" fill="none" stroke="#2b1711" stroke-width="3" stroke-linecap="round"/></g><g transform="translate(256,256)"><ellipse cx="64" cy="104" rx="42" ry="11" fill="rgba(0,0,0,0.24)"/><path d="M64 24 L111 104 L17 104 Z" fill="#f4c24e" stroke="#2b1711" stroke-width="4"/><path d="M49 55 L78 55 L63 81 Z" fill="#7b3f24"/><circle cx="52" cy="58" r="4" fill="#2b1711"/><circle cx="76" cy="58" r="4" fill="#2b1711"/><path d="M54 72 C60 78 70 78 76 72" fill="none" stroke="#2b1711" stroke-width="3" stroke-linecap="round"/></g><g transform="translate(384,256)"><ellipse cx="64" cy="104" rx="42" ry="11" fill="rgba(0,0,0,0.24)"/><path d="M64 21 L111 101 L17 101 Z" fill="#f4c24e" stroke="#2b1711" stroke-width="4"/><path d="M49 52 L78 52 L63 78 Z" fill="#7b3f24"/><circle cx="52" cy="55" r="4" fill="#2b1711"/><circle cx="76" cy="55" r="4" fill="#2b1711"/><path d="M54 69 C60 75 70 75 76 69" fill="none" stroke="#2b1711" stroke-width="3" stroke-linecap="round"/></g><g transform="translate(0,384)"><ellipse cx="64" cy="104" rx="42" ry="11" fill="rgba(0,0,0,0.24)"/><path d="M64 24 L111 104 L17 104 Z" fill="#f4c24e" stroke="#2b1711" stroke-width="4"/><path d="M49 55 L78 55 L63 81 Z" fill="#7b3f24"/><circle cx="52" cy="58" r="4" fill="#2b1711"/><circle cx="76" cy="58" r="4" fill="#2b1711"/><path d="M54 72 C60 78 70 78 76 72" fill="none" stroke="#2b1711" stroke-width="3" stroke-linecap="round"/></g><g transform="translate(128,384)"><ellipse cx="64" cy="104" rx="42" ry="11" fill="rgba(0,0,0,0.24)"/><path d="M64 27 L111 107 L17 107 Z" fill="#f4c24e" stroke="#2b1711" stroke-width="4"/><path d="M49 58 L78 58 L63 84 Z" fill="#7b3f24"/><circle cx="52" cy="61" r="4" fill="#2b1711"/><circle cx="76" cy="61" r="4" fill="#2b1711"/><path d="M54 75 C60 81 70 81 76 75" fill="none" stroke="#2b1711" stroke-width="3" stroke-linecap="round"/></g><g transform="translate(256,384)"><ellipse cx="64" cy="104" rx="42" ry="11" fill="rgba(0,0,0,0.24)"/><path d="M64 24 L111 104 L17 104 Z" fill="#f4c24e" stroke="#2b1711" stroke-width="4"/><path d="M49 55 L78 55 L63 81 Z" fill="#7b3f24"/><circle cx="52" cy="58" r="4" fill="#2b1711"/><circle cx="76" cy="58" r="4" fill="#2b1711"/><path d="M54 72 C60 78 70 78 76 72" fill="none" stroke="#2b1711" stroke-width="3" stroke-linecap="round"/></g><g transform="translate(384,384)"><ellipse cx="64" cy="104" rx="42" ry="11" fill="rgba(0,0,0,0.24)"/><path d="M64 21 L111 101 L17 101 Z" fill="#f4c24e" stroke="#2b1711" stroke-width="4"/><path d="M49 52 L78 52 L63 78 Z" fill="#7b3f24"/><circle cx="52" cy="55" r="4" fill="#2b1711"/><circle cx="76" cy="55" r="4" fill="#2b1711"/><path d="M54 69 C60 75 70 75 76 69" fill="none" stroke="#2b1711" stroke-width="3" stroke-linecap="round"/></g></svg>
