<svg xmlns="http://www.w3.org/2000/svg" width="512" height="512" viewBox="0 0 512 512" role="img"><g transform="translate(0,0)"><ellipse cx="64" cy="104" rx="42" ry="11" fill="rgba(0,0,0,0.24)"/><path d="M28 101 L99 28 L110 104 Z" fill="#e7b94d" stroke="#2b1711" stroke-width="4"/><path d="M37 91 L99 28" stroke="#b83d30" stroke-width="10" stroke-linecap="round"/><circle cx="69" cy="68" r="7" fill="#b83d30"/><circle cx="84" cy="88" r="7" fill="#b83d30"/><circle cx="52" cy="58" r="4" fill="#2b1711"/><circle cx="76" cy="58" r="4" fill="#2b1711"/><path d="M54 72 C60 78 70 78 76 72" fill="none" stroke="#2b1711" stroke-width="3" stroke-linecap="round"/></g><g transform="translate(128,0)"><ellipse cx="64" cy="104" rx="42" ry="11" fill="rgba(0,0,0,0.24)"/><path d="M28 104 L99 31 L110 107 Z" fill="#e7b94d" stroke="#2b1711" stroke-width="4"/><path d="M37 94 L99 31" stroke="#b83d30" stroke-width="10" stroke-linecap="round"/><circle cx="69" cy="71" r="7" fill="#b83d30"/><circle cx="84" cy="91" r="7" fill="#b83d30"/><circle cx="52" cy="61" r="4" fill="#2b1711"/><circle cx="76" cy="61" r="4" fill="#2b1711"/><path d="M54 75 C60 81 70 81 76 75" fill="none" stroke="#2b1711" stroke-width="3" stroke-linecap="round"/></g><g transform="translate(256,0)"><ellipse cx="64" cy="104" rx="42" ry="11" fill="rgba(0,0,0,0.24)"/><path d="M28 101 L99 28 L110 104 Z" fill="#e7b94d" stroke="#2b1711" stroke-width="4"/><path d="M37 91 L99 28" stroke="#b83d30" stroke-width="10" stroke-linecap="round"/><circle cx="69" cy="68" r="7" fill="#b83d30"/><circle cx="84" cy="88" r="7" fill="#b83d30"/><circle cx="52" cy="58" r="4" fill="#2b1711"/><circle cx="76" cy="58" r="4" fill="#2b1711"/><path d="M54 72 C60 78 70 78 76 72" fill="none" stroke="#2b1711" stroke-width="3" stroke-linecap="round"/></g><g transform="translate(384,0)"><ellipse cx="64" cy="104" rx="42" ry="11" fill="rgba(0,0,0,0.24)"/><path d="M28 98 L99 25 L110 101 Z" fill="#e7b94d" stroke="#2b1711" stroke-width="4"/><path d="M37 88 L99 25" stroke="#b83d30" stroke-width="10" stroke-linecap="round"/><circle cx="69" cy="65" r="7" fill="#b83d30"/><circle cx="84" cy="85" r="7" fill="#b83d30"/><circle cx="52" cy="55" r="4" fill="#2b1711"/><circle cx="76" cy="55" r="4" fill="#2b1711"/><path d="M54 69 C60 75 70 75 76 69" fill="none" stroke="#2b1711" stroke-width="3" stroke-linecap="round"/></g><g transform="translate(0,128)"><ellipse cx="64" cy="104" rx="42" ry="11" fill="rgba(0,0,0,0.24)"/><path d="M28 101 L99 28 L110 104 Z" fill="#e7b94d" stroke="#2b1711" stroke-width="4"/><path d="M37 91 L99 28" stroke="#b83d30" stroke-width="10" stroke-linecap="round"/><circle cx="69" cy="68" r="7" fill="#b83d30"/><circle cx="84" cy="88" r="7" fill="#b83d30"/><circle cx="52" cy="58" r="4" fill="#2b1711"/><circle cx="76" cy="58" r="4" fill="#2b1711"/><path d="M54 72 C60 78 70 78 76 72" fill="none" stroke="#2b1711" stroke-width="3" stroke-linecap="round"/></g><g transform="translate(128,128)"><ellipse cx="64" cy="104" rx="42" ry="11" fill="rgba(0,0,0,0.24)"/><path d="M28 104 L99 31 L110 107 Z" fill="#e7b94d" stroke="#2b1711" stroke-width="4"/><path d="M37 94 L99 31" stroke="#b83d30" stroke-width="10" stroke-linecap="round"/><circle cx="69" cy="71" r="7" fill="#b83d30"/><circle cx="84" cy="91" r="7" fill="#b83d30"/><circle cx="52" cy="61" r="4" fill="#2b1711"/><circle cx="76" cy="61" r="4" fill="#2b1711"/><path d="M54 75 C60 81 70 81 76 75" fill="none" stroke="#2b1711" stroke-width="3" stroke-linecap="round"/></g><g transform="translate(256,128)"><ellipse cx="64" cy="104" rx="42" ry="11" fill="rgba(0,0,0,0.24)"/><path d="M28 101 L99 28 L110 104 Z" fill="#e7b94d" stroke="#2b1711" stroke-width="4"/><path d="M37 91 L99 28" stroke="#b83d30" stroke-width="10" stroke-linecap="round"/><circle cx="69" cy="68" r="7" fill="#b83d30"/><circle cx="84" cy="88" r="7" fill="#b83d30"/><circle cx="52" cy="58" r="4" fill="#2b1711"/><circle cx="76" cy="58" r="4" fill="#2b1711"/><path d="M54 72 C60 78 70 78 76 72" fill="none" stroke="#2b1711" stroke-width="3" stroke-linecap="round"/></g><g transform="translate(384,128)"><ellipse cx="64" cy="104" rx="42" ry="11" fill="rgba(0,0,0,0.24)"/><path d="M28 98 L99 25 L110 101 Z" fill="#e7b94d" stroke="#2b1711" stroke-width="4"/><path d="M37 88 L99 25" stroke="#b83d30" stroke-width="10" stroke-linecap="round"/><circle cx="69" cy="65" r="7" fill="#b83d30"/><circle cx="84" cy="85" r="7" fill="#b83d30"/><circle cx="52" cy="55" r="4" fill="#2b1711"/><circle cx="76" cy="55" r="4" fill="#2b1711"/><path d="M54 69 C60 75 70 75 76 69" fill="none" stroke="#2b1711" stroke-width="3" stroke-linecap="round"/></g><g transform="translate(0,256)"><ellipse cx="64" cy="104" rx="42" ry="11" fill="rgba(0,0,0,0.24)"/><path d="M28 101 L99 28 L110 104 Z" fill="#e7b94d" stroke="#2b1711" stroke-width="4"/><path d="M37 91 L99 28" stroke="#b83d30" stroke-width="10" stroke-linecap="round"/><circle cx="69" cy="68" r="7" fill="#b83d30"/><circle cx="84" cy="88" r="7" fill="#b83d30"/><circle cx="52" cy="58" r="4" fill="#2b1711"/><circle cx="76" cy="58" r="4" fill="#2b1711"/><path d="M54 72 C60 78 70 78 76 72" fill="none" stroke="#2b1711" stroke-width="3" stroke-linecap="round"/></g><g transform="translate(128,256)"><ellipse cx="64" cy="104" rx="42" ry="11" fill="rgba(0,0,0,0.24)"/><path d="M28 104 L99 31 L110 107 Z" fill="#e7b94d" stroke="#2b1711" stroke-width="4"/><path d="M37 94 L99 31" stroke="#b83d30" stroke-width="10" stroke-linecap="round"/><circle cx="69" cy="71" r="7" fill="#b83d30"/><circle cx="84" cy="91" r="7" fill="#b83d30"/><circle cx="52" cy="61" r="4" fill="#2b1711"/><circle cx="76" cy="61" r="4" fill="#2b1711"/><path d="M54 75 C60 81 70 81 76 75" fill="none" stroke="#2b1711" stroke-width="3" stroke-linecap="round"/></g><g transform="translate(256,256)"><ellipse cx="64" cy="104" rx="42" ry="11" fill="rgba(0,0,0,0.24)"/><path d="M28 101 L99 28 L110 104 Z" fill="#e7b94d" stroke="#2b1711" stroke-width="4"/><path d="M37 91 L99 28" stroke="#b83d30" stroke-width="10" stroke-linecap="round"/><circle cx="69" cy="68" r="7" fill="#b83d30"/><circle cx="84" cy="88" r="7" fill="#b83d30"/><circle cx="52" cy="58" r="4" fill="#2b1711"/><circle cx="76" cy="58" r="4" fill="#2b1711"/><path d="M54 72 C60 78 70 78 76 72" fill="none" stroke="#2b1711" stroke-width="3" stroke-linecap="round"/></g><g transform="translate(384,256)"><ellipse cx="64" cy="104" rx="42" ry="11" fill="rgba(0,0,0,0.24)"/><path d="M28 98 L99 25 L110 101 Z" fill="#e7b94d" stroke="#2b1711" stroke-width="4"/><path d="M37 88 L99 25" stroke="#b83d30" stroke-width="10" stroke-linecap="round"/><circle cx="69" cy="65" r="7" fill="#b83d30"/><circle cx="84" cy="85" r="7" fill="#b83d30"/><circle cx="52" cy="55" r="4" fill="#2b1711"/><circle cx="76" cy="55" r="4" fill="#2b1711"/><path d="M54 69 C60 75 70 75 76 69" fill="none" stroke="#2b1711" stroke-width="3" stroke-linecap="round"/></g><g transform="translate(0,384)"><ellipse cx="64" cy="104" rx="42" ry="11" fill="rgba(0,0,0,0.24)"/><path d="M28 101 L99 28 L110 104 Z" fill="#e7b94d" stroke="#2b1711" stroke-width="4"/><path d="M37 91 L99 28" stroke="#b83d30" stroke-width="10" stroke-linecap="round"/><circle cx="69" cy="68" r="7" fill="#b83d30"/><circle cx="84" cy="88" r="7" fill="#b83d30"/><circle cx="52" cy="58" r="4" fill="#2b1711"/><circle cx="76" cy="58" r="4" fill="#2b1711"/><path d="M54 72 C60 78 70 78 76 72" fill="none" stroke="#2b1711" stroke-width="3" stroke-linecap="round"/></g><g transform="translate(128,384)"><ellipse cx="64" cy="104" rx="42" ry="11" fill="rgba(0,0,0,0.24)"/><path d="M28 104 L99 31 L110 107 Z" fill="#e7b94d" stroke="#2b1711" stroke-width="4"/><path d="M37 94 L99 31" stroke="#b83d30" stroke-width="10" stroke-linecap="round"/><circle cx="69" cy="71" r="7" fill="#b83d30"/><circle cx="84" cy="91" r="7" fill="#b83d30"/><circle cx="52" cy="61" r="4" fill="#2b1711"/><circle cx="76" cy="61" r="4" fill="#2b1711"/><path d="M54 75 C60 81 70 81 76 75" fill="none" stroke="#2b1711" stroke-width="3" stroke-linecap="round"/></g><g transform="translate(256,384)"><ellipse cx="64" cy="104" rx="42" ry="11" fill="rgba(0,0,0,0.24)"/><path d="M28 101 L99 28 L110 104 Z" fill="#e7b94d" stroke="#2b1711" stroke-width="4"/><path d="M37 91 L99 28" stroke="#b83d30" stroke-width="10" stroke-linecap="round"/><circle cx="69" cy="68" r="7" fill="#b83d30"/><circle cx="84" cy="88" r="7" fill="#b83d30"/><circle cx="52" cy="58" r="4" fill="#2b1711"/><circle cx="76" cy="58" r="4" fill="#2b1711"/><path d="M54 72 C60 78 70 78 76 72" fill="none" stroke="#2b1711" stroke-width="3" stroke-linecap="round"/></g><g transform="translate(384,384)"><ellipse cx="64" cy="104" rx="42" ry="11" fill="rgba(0,0,0,0.24)"/><path d="M28 98 L99 25 L110 101 Z" fill="#e7b94d" stroke="#2b1711" stroke-width="4"/><path d="M37 88 L99 25" stroke="#b83d30" stroke-width="10" stroke-linecap="round"/><circle cx="69" cy="65" r="7" fill="#b83d30"/><circle cx="84" cy="85" r="7" fill="#b83d30"/><circle cx="52" cy="55" r="4" fill="#2b1711"/><circle cx="76" cy="55" r="4" fill="#2b1711"/><path d="M54 69 C60 75 70 75 76 69" fill="none" stroke="#2b1711" stroke-width="3" stroke-linecap="round"/></g></svg>
