<svg xmlns="http://www.w3.org/2000/svg" width="512" height="512" viewBox="0 0 512 512" role="img"><g transform="translate(0,0)"><ellipse cx="64" cy="104" rx="42" ry="11" fill="rgba(0,0,0,0.24)"/><ellipse cx="64" cy="69" rx="47" ry="38" fill="#be2e2e" stroke="#2b1711" stroke-width="4"/><path d="M25 54 C44 36 84 36 103 54" stroke="#f6dfae" stroke-width="12" stroke-linecap="round"/><path d="M35 49 C46 39 80 39 93 49" stroke="#f0a03a" stroke-width="5" stroke-linecap="round"/><circle cx="52" cy="58" r="4" fill="#2b1711"/><circle cx="76" cy="58" r="4" fill="#2b1711"/><path d="M54 72 C60 78 70 78 76 72" fill="none" stroke="#2b1711" stroke-width="3" stroke-linecap="round"/></g><g transform="translate(128,0)"><ellipse cx="64" cy="104" rx="42" ry="11" fill="rgba(0,0,0,0.24)"/><ellipse cx="64" cy="72" rx="47" ry="38" fill="#be2e2e" stroke="#2b1711" stroke-width="4"/><path d="M25 57 C44 39 84 39 103 57" stroke="#f6dfae" stroke-width="12" stroke-linecap="round"/><path d="M35 52 C46 42 80 42 93 52" stroke="#f0a03a" stroke-width="5" stroke-linecap="round"/><circle cx="52" cy="61" r="4" fill="#2b1711"/><circle cx="76" cy="61" r="4" fill="#2b1711"/><path d="M54 75 C60 81 70 81 76 75" fill="none" stroke="#2b1711" stroke-width="3" stroke-linecap="round"/></g><g transform="translate(256,0)"><ellipse cx="64" cy="104" rx="42" ry="11" fill="rgba(0,0,0,0.24)"/><ellipse cx="64" cy="69" rx="47" ry="38" fill="#be2e2e" stroke="#2b1711" stroke-width="4"/><path d="M25 54 C44 36 84 36 103 54" stroke="#f6dfae" stroke-width="12" stroke-linecap="round"/><path d="M35 49 C46 39 80 39 93 49" stroke="#f0a03a" stroke-width="5" stroke-linecap="round"/><circle cx="52" cy="58" r="4" fill="#2b1711"/><circle cx="76" cy="58" r="4" fill="#2b1711"/><path d="M54 72 C60 78 70 78 76 72" fill="none" stroke="#2b1711" stroke-width="3" stroke-linecap="round"/></g><g transform="translate(384,0)"><ellipse cx="64" cy="104" rx="42" ry="11" fill="rgba(0,0,0,0.24)"/><ellipse cx="64" cy="66" rx="47" ry="38" fill="#be2e2e" stroke="#2b1711" stroke-width="4"/><path d="M25 51 C44 33 84 33 103 51" stroke="#f6dfae" stroke-width="12" stroke-linecap="round"/><path d="M35 46 C46 36 80 36 93 46" stroke="#f0a03a" stroke-width="5" stroke-linecap="round"/><circle cx="52" cy="55" r="4" fill="#2b1711"/><circle cx="76" cy="55" r="4" fill="#2b1711"/><path d="M54 69 C60 75 70 75 76 69" fill="none" stroke="#2b1711" stroke-width="3" stroke-linecap="round"/></g><g transform="translate(0,128)"><ellipse cx="64" cy="104" rx="42" ry="11" fill="rgba(0,0,0,0.24)"/><ellipse cx="64" cy="69" rx="47" ry="38" fill="#be2e2e" stroke="#2b1711" stroke-width="4"/><path d="M25 54 C44 36 84 36 103 54" stroke="#f6dfae" stroke-width="12" stroke-linecap="round"/><path d="M35 49 C46 39 80 39 93 49" stroke="#f0a03a" stroke-width="5" stroke-linecap="round"/><circle cx="52" cy="58" r="4" fill="#2b1711"/><circle cx="76" cy="58" r="4" fill="#2b1711"/><path d="M54 72 C60 78 70 78 76 72" fill="none" stroke="#2b1711" stroke-width="3" stroke-linecap="round"/></g><g transform="translate(128,128)"><ellipse cx="64" cy="104" rx="42" ry="11" fill="rgba(0,0,0,0.24)"/><ellipse cx="64" cy="72" rx="47" ry="38" fill="#be2e2e" stroke="#2b1711" stroke-width="4"/><path d="M25 57 C44 39 84 39 103 57" stroke="#f6dfae" stroke-width="12" stroke-linecap="round"/><path d="M35 52 C46 42 80 42 93 52" stroke="#f0a03a" stroke-width="5" stroke-linecap="round"/><circle cx="52" cy="61" r="4" fill="#2b1711"/><circle cx="76" cy="61" r="4" fill="#2b1711"/><path d="M54 75 C60 81 70 81 76 75" fill="none" stroke="#2b1711" stroke-width="3" stroke-linecap="round"/></g><g transform="translate(256,128)"><ellipse cx="64" cy="104" rx="42" ry="11" fill="rgba(0,0,0,0.24)"/><ellipse cx="64" cy="69" rx="47" ry="38" fill="#be2e2e" stroke="#2b1711" stroke-width="4"/><path d="M25 54 C44 36 84 36 103 54" stroke="#f6dfae" stroke-width="12" stroke-linecap="round"/><path d="M35 49 C46 39 80 39 93 49" stroke="#f0a03a" stroke-width="5" stroke-linecap="round"/><circle cx="52" cy="58" r="4" fill="#2b1711"/><circle cx="76" cy="58" r="4" fill="#2b1711"/><path d="M54 72 C60 78 70 78 76 72" fill="none" stroke="#2b1711" stroke-width="3" stroke-linecap="round"/></g><g transform="translate(384,128)"><ellipse cx="64" cy="104" rx="42" ry="11" fill="rgba(0,0,0,0.24)"/><ellipse cx="64" cy="66" rx="47" ry="38" fill="#be2e2e" stroke="#2b1711" stroke-width="4"/><path d="M25 51 C44 33 84 33 103 51" stroke="#f6dfae" stroke-width="12" stroke-linecap="round"/><path d="M35 46 C46 36 80 36 93 46" stroke="#f0a03a" stroke-width="5" stroke-linecap="round"/><circle cx="52" cy="55" r="4" fill="#2b1711"/><circle cx="76" cy="55" r="4" fill="#2b1711"/><path d="M54 69 C60 75 70 75 76 69" fill="none" stroke="#2b1711" stroke-width="3" stroke-linecap="round"/></g><g transform="translate(0,256)"><ellipse cx="64" cy="104" rx="42" ry="11" fill="rgba(0,0,0,0.24)"/><ellipse cx="64" cy="69" rx="47" ry="38" fill="#f0a03a" stroke="#2b1711" stroke-width="4"/><path d="M25 54 C44 36 84 36 103 54" stroke="#f6dfae" stroke-width="12" stroke-linecap="round"/><path d="M35 49 C46 39 80 39 93 49" stroke="#f0a03a" stroke-width="5" stroke-linecap="round"/><circle cx="52" cy="58" r="4" fill="#2b1711"/><circle cx="76" cy="58" r="4" fill="#2b1711"/><path d="M54 72 C60 78 70 78 76 72" fill="none" stroke="#2b1711" stroke-width="3" stroke-linecap="round"/></g><g transform="translate(128,256)"><ellipse cx="64" cy="104" rx="42" ry="11" fill="rgba(0,0,0,0.24)"/><ellipse cx="64" cy="72" rx="47" ry="38" fill="#f0a03a" stroke="#2b1711" stroke-width="4"/><path d="M25 57 C44 39 84 39 103 57" stroke="#f6dfae" stroke-width="12" stroke-linecap="round"/><path d="M35 52 C46 42 80 42 93 52" stroke="#f0a03a" stroke-width="5" stroke-linecap="round"/><circle cx="52" cy="61" r="4" fill="#2b1711"/><circle cx="76" cy="61" r="4" fill="#2b1711"/><path d="M54 75 C60 81 70 81 76 75" fill="none" stroke="#2b1711" stroke-width="3" stroke-linecap="round"/></g><g transform="translate(256,256)"><ellipse cx="64" cy="104" rx="42" ry="11" fill="rgba(0,0,0,0.24)"/><ellipse cx="64" cy="69" rx="47" ry="38" fill="#f0a03a" stroke="#2b1711" stroke-width="4"/><path d="M25 54 C44 36 84 36 103 54" stroke="#f6dfae" stroke-width="12" stroke-linecap="round"/><path d="M35 49 C46 39 80 39 93 49" stroke="#f0a03a" stroke-width="5" stroke-linecap="round"/><circle cx="52" cy="58" r="4" fill="#2b1711"/><circle cx="76" cy="58" r="4" fill="#2b1711"/><path d="M54 72 C60 78 70 78 76 72" fill="none" stroke="#2b1711" stroke-width="3" stroke-linecap="round"/></g><g transform="translate(384,256)"><ellipse cx="64" cy="104" rx="42" ry="11" fill="rgba(0,0,0,0.24)"/><ellipse cx="64" cy="66" rx="47" ry="38" fill="#f0a03a" stroke="#2b1711" stroke-width="4"/><path d="M25 51 C44 33 84 33 103 51" stroke="#f6dfae" stroke-width="12" stroke-linecap="round"/><path d="M35 46 C46 36 80 36 93 46" stroke="#f0a03a" stroke-width="5" stroke-linecap="round"/><circle cx="52" cy="55" r="4" fill="#2b1711"/><circle cx="76" cy="55" r="4" fill="#2b1711"/><path d="M54 69 C60 75 70 75 76 69" fill="none" stroke="#2b1711" stroke-width="3" stroke-linecap="round"/></g><g transform="translate(0,384)"><ellipse cx="64" cy="104" rx="42" ry="11" fill="rgba(0,0,0,0.24)"/><ellipse cx="64" cy="69" rx="47" ry="38" fill="#be2e2e" stroke="#2b1711" stroke-width="4"/><path d="M25 54 C44 36 84 36 103 54" stroke="#f6dfae" stroke-width="12" stroke-linecap="round"/><path d="M35 49 C46 39 80 39 93 49" stroke="#f0a03a" stroke-width="5" stroke-linecap="round"/><circle cx="52" cy="58" r="4" fill="#2b1711"/><circle cx="76" cy="58" r="4" fill="#2b1711"/><path d="M54 72 C60 78 70 78 76 72" fill="none" stroke="#2b1711" stroke-width="3" stroke-linecap="round"/></g><g transform="translate(128,384)"><ellipse cx="64" cy="104" rx="42" ry="11" fill="rgba(0,0,0,0.24)"/><ellipse cx="64" cy="72" rx="47" ry="38" fill="#be2e2e" stroke="#2b1711" stroke-width="4"/><path d="M25 57 C44 39 84 39 103 57" stroke="#f6dfae" stroke-width="12" stroke-linecap="round"/><path d="M35 52 C46 42 80 42 93 52" stroke="#f0a03a" stroke-width="5" stroke-linecap="round"/><circle cx="52" cy="61" r="4" fill="#2b1711"/><circle cx="76" cy="61" r="4" fill="#2b1711"/><path d="M54 75 C60 81 70 81 76 75" fill="none" stroke="#2b1711" stroke-width="3" stroke-linecap="round"/></g><g transform="translate(256,384)"><ellipse cx="64" cy="104" rx="42" ry="11" fill="rgba(0,0,0,0.24)"/><ellipse cx="64" cy="69" rx="47" ry="38" fill="#be2e2e" stroke="#2b1711" stroke-width="4"/><path d="M25 54 C44 36 84 36 103 54" stroke="#f6dfae" stroke-width="12" stroke-linecap="round"/><path d="M35 49 C46 39 80 39 93 49" stroke="#f0a03a" stroke-width="5" stroke-linecap="round"/><circle cx="52" cy="58" r="4" fill="#2b1711"/><circle cx="76" cy="58" r="4" fill="#2b1711"/><path d="M54 72 C60 78 70 78 76 72" fill="none" stroke="#2b1711" stroke-width="3" stroke-linecap="round"/></g><g transform="translate(384,384)"><ellipse cx="64" cy="104" rx="42" ry="11" fill="rgba(0,0,0,0.24)"/><ellipse cx="64" cy="66" rx="47" ry="38" fill="#be2e2e" stroke="#2b1711" stroke-width="4"/><path d="M25 51 C44 33 84 33 103 51" stroke="#f6dfae" stroke-width="12" stroke-linecap="round"/><path d="M35 46 C46 36 80 36 93 46" stroke="#f0a03a" stroke-width="5" stroke-linecap="round"/><circle cx="52" cy="55" r="4" fill="#2b1711"/><circle cx="76" cy="55" r="4" fill="#2b1711"/><path d="M54 69 C60 75 70 75 76 69" fill="none" stroke="#2b1711" stroke-width="3" stroke-linecap="round"/></g></svg>
