<svg xmlns="http://www.w3.org/2000/svg" width="512" height="512" viewBox="0 0 512 512" role="img"><g transform="translate(0,0)"><ellipse cx="64" cy="104" rx="42" ry="11" fill="rgba(0,0,0,0.24)"/><path d="M37 31 H91 L83 106 H45 Z" fill="#d8b58c" stroke="#2b1711" stroke-width="4"/><path d="M42 29 H86" stroke="#f7efd9" stroke-width="11" stroke-linecap="round"/><path d="M73 27 L86 5" stroke="#f7efd9" stroke-width="6" stroke-linecap="round"/><circle cx="52" cy="58" r="4" fill="#2b1711"/><circle cx="76" cy="58" r="4" fill="#2b1711"/><path d="M54 72 C60 78 70 78 76 72" fill="none" stroke="#2b1711" stroke-width="3" stroke-linecap="round"/></g><g transform="translate(128,0)"><ellipse cx="64" cy="104" rx="42" ry="11" fill="rgba(0,0,0,0.24)"/><path d="M37 34 H91 L83 109 H45 Z" fill="#d8b58c" stroke="#2b1711" stroke-width="4"/><path d="M42 32 H86" stroke="#f7efd9" stroke-width="11" stroke-linecap="round"/><path d="M73 30 L86 8" stroke="#f7efd9" stroke-width="6" stroke-linecap="round"/><circle cx="52" cy="61" r="4" fill="#2b1711"/><circle cx="76" cy="61" r="4" fill="#2b1711"/><path d="M54 75 C60 81 70 81 76 75" fill="none" stroke="#2b1711" stroke-width="3" stroke-linecap="round"/></g><g transform="translate(256,0)"><ellipse cx="64" cy="104" rx="42" ry="11" fill="rgba(0,0,0,0.24)"/><path d="M37 31 H91 L83 106 H45 Z" fill="#d8b58c" stroke="#2b1711" stroke-width="4"/><path d="M42 29 H86" stroke="#f7efd9" stroke-width="11" stroke-linecap="round"/><path d="M73 27 L86 5" stroke="#f7efd9" stroke-width="6" stroke-linecap="round"/><circle cx="52" cy="58" r="4" fill="#2b1711"/><circle cx="76" cy="58" r="4" fill="#2b1711"/><path d="M54 72 C60 78 70 78 76 72" fill="none" stroke="#2b1711" stroke-width="3" stroke-linecap="round"/></g><g transform="translate(384,0)"><ellipse cx="64" cy="104" rx="42" ry="11" fill="rgba(0,0,0,0.24)"/><path d="M37 28 H91 L83 103 H45 Z" fill="#d8b58c" stroke="#2b1711" stroke-width="4"/><path d="M42 26 H86" stroke="#f7efd9" stroke-width="11" stroke-linecap="round"/><path d="M73 24 L86 2" stroke="#f7efd9" stroke-width="6" stroke-linecap="round"/><circle cx="52" cy="55" r="4" fill="#2b1711"/><circle cx="76" cy="55" r="4" fill="#2b1711"/><path d="M54 69 C60 75 70 75 76 69" fill="none" stroke="#2b1711" stroke-width="3" stroke-linecap="round"/></g><g transform="translate(0,128)"><ellipse cx="64" cy="104" rx="42" ry="11" fill="rgba(0,0,0,0.24)"/><path d="M37 31 H91 L83 106 H45 Z" fill="#d8b58c" stroke="#2b1711" stroke-width="4"/><path d="M42 29 H86" stroke="#f7efd9" stroke-width="11" stroke-linecap="round"/><path d="M73 27 L86 5" stroke="#7b4a2f" stroke-width="6" stroke-linecap="round"/><circle cx="52" cy="58" r="4" fill="#2b1711"/><circle cx="76" cy="58" r="4" fill="#2b1711"/><path d="M54 72 C60 78 70 78 76 72" fill="none" stroke="#2b1711" stroke-width="3" stroke-linecap="round"/></g><g transform="translate(128,128)"><ellipse cx="64" cy="104" rx="42" ry="11" fill="rgba(0,0,0,0.24)"/><path d="M37 34 H91 L83 109 H45 Z" fill="#d8b58c" stroke="#2b1711" stroke-width="4"/><path d="M42 32 H86" stroke="#f7efd9" stroke-width="11" stroke-linecap="round"/><path d="M73 30 L86 8" stroke="#7b4a2f" stroke-width="6" stroke-linecap="round"/><circle cx="52" cy="61" r="4" fill="#2b1711"/><circle cx="76" cy="61" r="4" fill="#2b1711"/><path d="M54 75 C60 81 70 81 76 75" fill="none" stroke="#2b1711" stroke-width="3" stroke-linecap="round"/></g><g transform="translate(256,128)"><ellipse cx="64" cy="104" rx="42" ry="11" fill="rgba(0,0,0,0.24)"/><path d="M37 31 H91 L83 106 H45 Z" fill="#d8b58c" stroke="#2b1711" stroke-width="4"/><path d="M42 29 H86" stroke="#f7efd9" stroke-width="11" stroke-linecap="round"/><path d="M73 27 L86 5" stroke="#7b4a2f" stroke-width="6" stroke-linecap="round"/><circle cx="52" cy="58" r="4" fill="#2b1711"/><circle cx="76" cy="58" r="4" fill="#2b1711"/><path d="M54 72 C60 78 70 78 76 72" fill="none" stroke="#2b1711" stroke-width="3" stroke-linecap="round"/></g><g transform="translate(384,128)"><ellipse cx="64" cy="104" rx="42" ry="11" fill="rgba(0,0,0,0.24)"/><path d="M37 28 H91 L83 103 H45 Z" fill="#d8b58c" stroke="#2b1711" stroke-width="4"/><path d="M42 26 H86" stroke="#f7efd9" stroke-width="11" stroke-linecap="round"/><path d="M73 24 L86 2" stroke="#7b4a2f" stroke-width="6" stroke-linecap="round"/><circle cx="52" cy="55" r="4" fill="#2b1711"/><circle cx="76" cy="55" r="4" fill="#2b1711"/><path d="M54 69 C60 75 70 75 76 69" fill="none" stroke="#2b1711" stroke-width="3" stroke-linecap="round"/></g><g transform="translate(0,256)"><ellipse cx="64" cy="104" rx="42" ry="11" fill="rgba(0,0,0,0.24)"/><path d="M37 31 H91 L83 106 H45 Z" fill="#d8b58c" stroke="#2b1711" stroke-width="4"/><path d="M42 29 H86" stroke="#f7efd9" stroke-width="11" stroke-linecap="round"/><path d="M73 27 L86 5" stroke="#f7efd9" stroke-width="6" stroke-linecap="round"/><circle cx="52" cy="58" r="4" fill="#2b1711"/><circle cx="76" cy="58" r="4" fill="#2b1711"/><path d="M54 72 C60 78 70 78 76 72" fill="none" stroke="#2b1711" stroke-width="3" stroke-linecap="round"/></g><g transform="translate(128,256)"><ellipse cx="64" cy="104" rx="42" ry="11" fill="rgba(0,0,0,0.24)"/><path d="M37 34 H91 L83 109 H45 Z" fill="#d8b58c" stroke="#2b1711" stroke-width="4"/><path d="M42 32 H86" stroke="#f7efd9" stroke-width="11" stroke-linecap="round"/><path d="M73 30 L86 8" stroke="#f7efd9" stroke-width="6" stroke-linecap="round"/><circle cx="52" cy="61" r="4" fill="#2b1711"/><circle cx="76" cy="61" r="4" fill="#2b1711"/><path d="M54 75 C60 81 70 81 76 75" fill="none" stroke="#2b1711" stroke-width="3" stroke-linecap="round"/></g><g transform="translate(256,256)"><ellipse cx="64" cy="104" rx="42" ry="11" fill="rgba(0,0,0,0.24)"/><path d="M37 31 H91 L83 106 H45 Z" fill="#d8b58c" stroke="#2b1711" stroke-width="4"/><path d="M42 29 H86" stroke="#f7efd9" stroke-width="11" stroke-linecap="round"/><path d="M73 27 L86 5" stroke="#f7efd9" stroke-width="6" stroke-linecap="round"/><circle cx="52" cy="58" r="4" fill="#2b1711"/><circle cx="76" cy="58" r="4" fill="#2b1711"/><path d="M54 72 C60 78 70 78 76 72" fill="none" stroke="#2b1711" stroke-width="3" stroke-linecap="round"/></g><g transform="translate(384,256)"><ellipse cx="64" cy="104" rx="42" ry="11" fill="rgba(0,0,0,0.24)"/><path d="M37 28 H91 L83 103 H45 Z" fill="#d8b58c" stroke="#2b1711" stroke-width="4"/><path d="M42 26 H86" stroke="#f7efd9" stroke-width="11" stroke-linecap="round"/><path d="M73 24 L86 2" stroke="#f7efd9" stroke-width="6" stroke-linecap="round"/><circle cx="52" cy="55" r="4" fill="#2b1711"/><circle cx="76" cy="55" r="4" fill="#2b1711"/><path d="M54 69 C60 75 70 75 76 69" fill="none" stroke="#2b1711" stroke-width="3" stroke-linecap="round"/></g><g transform="translate(0,384)"><ellipse cx="64" cy="104" rx="42" ry="11" fill="rgba(0,0,0,0.24)"/><path d="M37 31 H91 L83 106 H45 Z" fill="#d8b58c" stroke="#2b1711" stroke-width="4"/><path d="M42 29 H86" stroke="#f7efd9" stroke-width="11" stroke-linecap="round"/><path d="M73 27 L86 5" stroke="#f7efd9" stroke-width="6" stroke-linecap="round"/><circle cx="52" cy="58" r="4" fill="#2b1711"/><circle cx="76" cy="58" r="4" fill="#2b1711"/><path d="M54 72 C60 78 70 78 76 72" fill="none" stroke="#2b1711" stroke-width="3" stroke-linecap="round"/></g><g transform="translate(128,384)"><ellipse cx="64" cy="104" rx="42" ry="11" fill="rgba(0,0,0,0.24)"/><path d="M37 34 H91 L83 109 H45 Z" fill="#d8b58c" stroke="#2b1711" stroke-width="4"/><path d="M42 32 H86" stroke="#f7efd9" stroke-width="11" stroke-linecap="round"/><path d="M73 30 L86 8" stroke="#f7efd9" stroke-width="6" stroke-linecap="round"/><circle cx="52" cy="61" r="4" fill="#2b1711"/><circle cx="76" cy="61" r="4" fill="#2b1711"/><path d="M54 75 C60 81 70 81 76 75" fill="none" stroke="#2b1711" stroke-width="3" stroke-linecap="round"/></g><g transform="translate(256,384)"><ellipse cx="64" cy="104" rx="42" ry="11" fill="rgba(0,0,0,0.24)"/><path d="M37 31 H91 L83 106 H45 Z" fill="#d8b58c" stroke="#2b1711" stroke-width="4"/><path d="M42 29 H86" stroke="#f7efd9" stroke-width="11" stroke-linecap="round"/><path d="M73 27 L86 5" stroke="#f7efd9" stroke-width="6" stroke-linecap="round"/><circle cx="52" cy="58" r="4" fill="#2b1711"/><circle cx="76" cy="58" r="4" fill="#2b1711"/><path d="M54 72 C60 78 70 78 76 72" fill="none" stroke="#2b1711" stroke-width="3" stroke-linecap="round"/></g><g transform="translate(384,384)"><ellipse cx="64" cy="104" rx="42" ry="11" fill="rgba(0,0,0,0.24)"/><path d="M37 28 H91 L83 103 H45 Z" fill="#d8b58c" stroke="#2b1711" stroke-width="4"/><path d="M42 26 H86" stroke="#f7efd9" stroke-width="11" stroke-linecap="round"/><path d="M73 24 L86 2" stroke="#f7efd9" stroke-width="6" stroke-linecap="round"/><circle cx="52" cy="55" r="4" fill="#2b1711"/><circle cx="76" cy="55" r="4" fill="#2b1711"/><path d="M54 69 C60 75 70 75 76 69" fill="none" stroke="#2b1711" stroke-width="3" stroke-linecap="round"/></g></svg>
