<svg xmlns="http://www.w3.org/2000/svg" width="512" height="512" viewBox="0 0 512 512" role="img"><g transform="translate(0,0)"><ellipse cx="64" cy="104" rx="42" ry="11" fill="rgba(0,0,0,0.24)"/><path d="M25 91 C28 33 99 33 103 91 Z" fill="#e0ae47" stroke="#2b1711" stroke-width="4"/><path d="M34 56 C49 42 79 42 94 56" fill="none" stroke="#63aa4f" stroke-width="9" stroke-linecap="round"/><circle cx="56" cy="48" r="5" fill="#cf4131"/><circle cx="76" cy="48" r="5" fill="#cf4131"/><circle cx="52" cy="58" r="4" fill="#2b1711"/><circle cx="76" cy="58" r="4" fill="#2b1711"/><path d="M54 72 C60 78 70 78 76 72" fill="none" stroke="#2b1711" stroke-width="3" stroke-linecap="round"/></g><g transform="translate(128,0)"><ellipse cx="64" cy="104" rx="42" ry="11" fill="rgba(0,0,0,0.24)"/><path d="M25 94 C28 36 99 36 103 94 Z" fill="#e0ae47" stroke="#2b1711" stroke-width="4"/><path d="M34 59 C49 45 79 45 94 59" fill="none" stroke="#63aa4f" stroke-width="9" stroke-linecap="round"/><circle cx="56" cy="51" r="5" fill="#cf4131"/><circle cx="76" cy="51" r="5" fill="#cf4131"/><circle cx="52" cy="61" r="4" fill="#2b1711"/><circle cx="76" cy="61" r="4" fill="#2b1711"/><path d="M54 75 C60 81 70 81 76 75" fill="none" stroke="#2b1711" stroke-width="3" stroke-linecap="round"/></g><g transform="translate(256,0)"><ellipse cx="64" cy="104" rx="42" ry="11" fill="rgba(0,0,0,0.24)"/><path d="M25 91 C28 33 99 33 103 91 Z" fill="#e0ae47" stroke="#2b1711" stroke-width="4"/><path d="M34 56 C49 42 79 42 94 56" fill="none" stroke="#63aa4f" stroke-width="9" stroke-linecap="round"/><circle cx="56" cy="48" r="5" fill="#cf4131"/><circle cx="76" cy="48" r="5" fill="#cf4131"/><circle cx="52" cy="58" r="4" fill="#2b1711"/><circle cx="76" cy="58" r="4" fill="#2b1711"/><path d="M54 72 C60 78 70 78 76 72" fill="none" stroke="#2b1711" stroke-width="3" stroke-linecap="round"/></g><g transform="translate(384,0)"><ellipse cx="64" cy="104" rx="42" ry="11" fill="rgba(0,0,0,0.24)"/><path d="M25 88 C28 30 99 30 103 88 Z" fill="#e0ae47" stroke="#2b1711" stroke-width="4"/><path d="M34 53 C49 39 79 39 94 53" fill="none" stroke="#63aa4f" stroke-width="9" stroke-linecap="round"/><circle cx="56" cy="45" r="5" fill="#cf4131"/><circle cx="76" cy="45" r="5" fill="#cf4131"/><circle cx="52" cy="55" r="4" fill="#2b1711"/><circle cx="76" cy="55" r="4" fill="#2b1711"/><path d="M54 69 C60 75 70 75 76 69" fill="none" stroke="#2b1711" stroke-width="3" stroke-linecap="round"/></g><g transform="translate(0,128)"><ellipse cx="64" cy="104" rx="42" ry="11" fill="rgba(0,0,0,0.24)"/><path d="M25 91 C28 33 99 33 103 91 Z" fill="#e0ae47" stroke="#2b1711" stroke-width="4"/><path d="M34 56 C49 42 79 42 94 56" fill="none" stroke="#63aa4f" stroke-width="9" stroke-linecap="round"/><circle cx="56" cy="48" r="5" fill="#cf4131"/><circle cx="76" cy="48" r="5" fill="#cf4131"/><circle cx="52" cy="58" r="4" fill="#2b1711"/><circle cx="76" cy="58" r="4" fill="#2b1711"/><path d="M54 72 C60 78 70 78 76 72" fill="none" stroke="#2b1711" stroke-width="3" stroke-linecap="round"/></g><g transform="translate(128,128)"><ellipse cx="64" cy="104" rx="42" ry="11" fill="rgba(0,0,0,0.24)"/><path d="M25 94 C28 36 99 36 103 94 Z" fill="#e0ae47" stroke="#2b1711" stroke-width="4"/><path d="M34 59 C49 45 79 45 94 59" fill="none" stroke="#63aa4f" stroke-width="9" stroke-linecap="round"/><circle cx="56" cy="51" r="5" fill="#cf4131"/><circle cx="76" cy="51" r="5" fill="#cf4131"/><circle cx="52" cy="61" r="4" fill="#2b1711"/><circle cx="76" cy="61" r="4" fill="#2b1711"/><path d="M54 75 C60 81 70 81 76 75" fill="none" stroke="#2b1711" stroke-width="3" stroke-linecap="round"/></g><g transform="translate(256,128)"><ellipse cx="64" cy="104" rx="42" ry="11" fill="rgba(0,0,0,0.24)"/><path d="M25 91 C28 33 99 33 103 91 Z" fill="#e0ae47" stroke="#2b1711" stroke-width="4"/><path d="M34 56 C49 42 79 42 94 56" fill="none" stroke="#63aa4f" stroke-width="9" stroke-linecap="round"/><circle cx="56" cy="48" r="5" fill="#cf4131"/><circle cx="76" cy="48" r="5" fill="#cf4131"/><circle cx="52" cy="58" r="4" fill="#2b1711"/><circle cx="76" cy="58" r="4" fill="#2b1711"/><path d="M54 72 C60 78 70 78 76 72" fill="none" stroke="#2b1711" stroke-width="3" stroke-linecap="round"/></g><g transform="translate(384,128)"><ellipse cx="64" cy="104" rx="42" ry="11" fill="rgba(0,0,0,0.24)"/><path d="M25 88 C28 30 99 30 103 88 Z" fill="#e0ae47" stroke="#2b1711" stroke-width="4"/><path d="M34 53 C49 39 79 39 94 53" fill="none" stroke="#63aa4f" stroke-width="9" stroke-linecap="round"/><circle cx="56" cy="45" r="5" fill="#cf4131"/><circle cx="76" cy="45" r="5" fill="#cf4131"/><circle cx="52" cy="55" r="4" fill="#2b1711"/><circle cx="76" cy="55" r="4" fill="#2b1711"/><path d="M54 69 C60 75 70 75 76 69" fill="none" stroke="#2b1711" stroke-width="3" stroke-linecap="round"/></g><g transform="translate(0,256)"><ellipse cx="64" cy="104" rx="42" ry="11" fill="rgba(0,0,0,0.24)"/><path d="M25 91 C28 33 99 33 103 91 Z" fill="#e0ae47" stroke="#2b1711" stroke-width="4"/><path d="M34 56 C49 42 79 42 94 56" fill="none" stroke="#63aa4f" stroke-width="9" stroke-linecap="round"/><circle cx="56" cy="48" r="5" fill="#cf4131"/><circle cx="76" cy="48" r="5" fill="#cf4131"/><circle cx="52" cy="58" r="4" fill="#2b1711"/><circle cx="76" cy="58" r="4" fill="#2b1711"/><path d="M54 72 C60 78 70 78 76 72" fill="none" stroke="#2b1711" stroke-width="3" stroke-linecap="round"/></g><g transform="translate(128,256)"><ellipse cx="64" cy="104" rx="42" ry="11" fill="rgba(0,0,0,0.24)"/><path d="M25 94 C28 36 99 36 103 94 Z" fill="#e0ae47" stroke="#2b1711" stroke-width="4"/><path d="M34 59 C49 45 79 45 94 59" fill="none" stroke="#63aa4f" stroke-width="9" stroke-linecap="round"/><circle cx="56" cy="51" r="5" fill="#cf4131"/><circle cx="76" cy="51" r="5" fill="#cf4131"/><circle cx="52" cy="61" r="4" fill="#2b1711"/><circle cx="76" cy="61" r="4" fill="#2b1711"/><path d="M54 75 C60 81 70 81 76 75" fill="none" stroke="#2b1711" stroke-width="3" stroke-linecap="round"/></g><g transform="translate(256,256)"><ellipse cx="64" cy="104" rx="42" ry="11" fill="rgba(0,0,0,0.24)"/><path d="M25 91 C28 33 99 33 103 91 Z" fill="#e0ae47" stroke="#2b1711" stroke-width="4"/><path d="M34 56 C49 42 79 42 94 56" fill="none" stroke="#63aa4f" stroke-width="9" stroke-linecap="round"/><circle cx="56" cy="48" r="5" fill="#cf4131"/><circle cx="76" cy="48" r="5" fill="#cf4131"/><circle cx="52" cy="58" r="4" fill="#2b1711"/><circle cx="76" cy="58" r="4" fill="#2b1711"/><path d="M54 72 C60 78 70 78 76 72" fill="none" stroke="#2b1711" stroke-width="3" stroke-linecap="round"/></g><g transform="translate(384,256)"><ellipse cx="64" cy="104" rx="42" ry="11" fill="rgba(0,0,0,0.24)"/><path d="M25 88 C28 30 99 30 103 88 Z" fill="#e0ae47" stroke="#2b1711" stroke-width="4"/><path d="M34 53 C49 39 79 39 94 53" fill="none" stroke="#63aa4f" stroke-width="9" stroke-linecap="round"/><circle cx="56" cy="45" r="5" fill="#cf4131"/><circle cx="76" cy="45" r="5" fill="#cf4131"/><circle cx="52" cy="55" r="4" fill="#2b1711"/><circle cx="76" cy="55" r="4" fill="#2b1711"/><path d="M54 69 C60 75 70 75 76 69" fill="none" stroke="#2b1711" stroke-width="3" stroke-linecap="round"/></g><g transform="translate(0,384)"><ellipse cx="64" cy="104" rx="42" ry="11" fill="rgba(0,0,0,0.24)"/><path d="M25 91 C28 33 99 33 103 91 Z" fill="#e0ae47" stroke="#2b1711" stroke-width="4"/><path d="M34 56 C49 42 79 42 94 56" fill="none" stroke="#63aa4f" stroke-width="9" stroke-linecap="round"/><circle cx="56" cy="48" r="5" fill="#cf4131"/><circle cx="76" cy="48" r="5" fill="#cf4131"/><circle cx="52" cy="58" r="4" fill="#2b1711"/><circle cx="76" cy="58" r="4" fill="#2b1711"/><path d="M54 72 C60 78 70 78 76 72" fill="none" stroke="#2b1711" stroke-width="3" stroke-linecap="round"/></g><g transform="translate(128,384)"><ellipse cx="64" cy="104" rx="42" ry="11" fill="rgba(0,0,0,0.24)"/><path d="M25 94 C28 36 99 36 103 94 Z" fill="#e0ae47" stroke="#2b1711" stroke-width="4"/><path d="M34 59 C49 45 79 45 94 59" fill="none" stroke="#63aa4f" stroke-width="9" stroke-linecap="round"/><circle cx="56" cy="51" r="5" fill="#cf4131"/><circle cx="76" cy="51" r="5" fill="#cf4131"/><circle cx="52" cy="61" r="4" fill="#2b1711"/><circle cx="76" cy="61" r="4" fill="#2b1711"/><path d="M54 75 C60 81 70 81 76 75" fill="none" stroke="#2b1711" stroke-width="3" stroke-linecap="round"/></g><g transform="translate(256,384)"><ellipse cx="64" cy="104" rx="42" ry="11" fill="rgba(0,0,0,0.24)"/><path d="M25 91 C28 33 99 33 103 91 Z" fill="#e0ae47" stroke="#2b1711" stroke-width="4"/><path d="M34 56 C49 42 79 42 94 56" fill="none" stroke="#63aa4f" stroke-width="9" stroke-linecap="round"/><circle cx="56" cy="48" r="5" fill="#cf4131"/><circle cx="76" cy="48" r="5" fill="#cf4131"/><circle cx="52" cy="58" r="4" fill="#2b1711"/><circle cx="76" cy="58" r="4" fill="#2b1711"/><path d="M54 72 C60 78 70 78 76 72" fill="none" stroke="#2b1711" stroke-width="3" stroke-linecap="round"/></g><g transform="translate(384,384)"><ellipse cx="64" cy="104" rx="42" ry="11" fill="rgba(0,0,0,0.24)"/><path d="M25 88 C28 30 99 30 103 88 Z" fill="#e0ae47" stroke="#2b1711" stroke-width="4"/><path d="M34 53 C49 39 79 39 94 53" fill="none" stroke="#63aa4f" stroke-width="9" stroke-linecap="round"/><circle cx="56" cy="45" r="5" fill="#cf4131"/><circle cx="76" cy="45" r="5" fill="#cf4131"/><circle cx="52" cy="55" r="4" fill="#2b1711"/><circle cx="76" cy="55" r="4" fill="#2b1711"/><path d="M54 69 C60 75 70 75 76 69" fill="none" stroke="#2b1711" stroke-width="3" stroke-linecap="round"/></g></svg>
